<svg xmlns="http://www.w3.org/2000/svg" viewBox="0 0 783.32 783.31" fill="currentColor"><g id="Layer_2" data-name="Layer 2"><g id="Capa_1" data-name="Capa 1"><path class="cls-1" d="M391.67 70.57c104.56 0 117 .39 158.26 2.27 38.19 1.75 58.92 8.14 72.72 13.49 18.29 7.12 31.32 15.6 45 29.31s22.2 26.73 29.3 45c5.36 13.81 11.75 34.55 13.48 72.73 1.9 41.29 2.29 53.68 2.29 158.27s-.39 117-2.29 158.26c-1.73 38.18-8.12 58.9-13.48 72.72-7.1 18.29-15.59 31.34-29.3 45s-26.74 22.2-45 29.31c-13.8 5.36-34.53 11.74-72.72 13.5-41.3 1.86-53.68 2.27-158.26 2.27s-117-.41-158.28-2.27c-38.18-1.76-58.92-8.14-72.72-13.5-18.28-7.11-31.32-15.6-45-29.31s-22.22-26.73-29.31-45c-5.36-13.8-11.75-34.52-13.51-72.7-1.89-41.3-2.28-53.69-2.28-158.26s.39-117 2.28-158.27c1.76-38.18 8.13-58.92 13.5-72.73 7.09-18.29 15.59-31.33 29.31-45s26.73-22.19 45-29.31c13.8-5.35 34.54-11.74 72.72-13.49 41.3-1.88 53.7-2.27 158.28-2.27m0-70.57C285.29 0 272 .44 230.2 2.35s-70.2 8.53-95.09 18.21c-25.74 10-47.59 23.4-69.36 45.18s-35.17 43.61-45.18 69.37C10.89 160 4.26 188.49 2.38 230.17S0 285.29 0 391.66s.45 119.69 2.38 161.47 8.51 70.16 18.19 95.07C30.58 674 44 695.8 65.75 717.57s43.62 35.18 69.36 45.18c24.91 9.68 53.4 16.29 95.09 18.19s55.09 2.37 161.47 2.37 119.71-.45 161.47-2.37 70.16-8.51 95.08-18.19c25.75-10 47.6-23.4 69.37-45.18s35.16-43.57 45.16-69.37c9.7-24.91 16.31-53.38 18.21-95.07s2.36-55.11 2.36-161.47S782.87 272 781 230.17s-8.51-70.15-18.21-95.06c-10-25.76-23.39-47.6-45.16-69.37S674 30.55 648.22 20.56c-24.92-9.68-53.39-16.3-95.08-18.21S498 0 391.67 0"/><path class="cls-1" d="M391.67 190.55c-111.09 0-201.12 90-201.12 201.11s90 201.11 201.12 201.11 201.11-90 201.11-201.11-90-201.11-201.11-201.11m0 331.66a130.56 130.56 0 11130.55-130.55 130.58 130.58 0 01-130.55 130.55M647.73 182.59a47 47 0 11-47-47 47 47 0 0147 47"/></g></g></svg>