<svg xmlns="http://www.w3.org/2000/svg" viewBox="0 0 72 56.32"><defs><style>.cls-1{fill:#f74900;}.cls-2{fill:#fff;}</style></defs><g id="Layer_2" data-name="Layer 2"><g id="Layer_1-2" data-name="Layer 1"><path class="cls-1" d="M71.07,56.32H.93A.93.93,0,0,1,0,55.39V.93A.93.93,0,0,1,.93,0H71.07a.93.93,0,0,1,.82,1.37l-14,26.35a.92.92,0,0,0,0,.88L71.89,55A.93.93,0,0,1,71.07,56.32Z"/><path class="cls-2" d="M43.24,43.1H38.18a.75.75,0,0,1-.7-.34L30.15,32.44l-2.9,3.67v6.41a.55.55,0,0,1-.58.58H22.31a.55.55,0,0,1-.58-.58V16.65a.55.55,0,0,1,.58-.58h4.36a.55.55,0,0,1,.58.58V28.58l9-12.2a.85.85,0,0,1,.7-.31H42.2c.5,0,.58.35.31.7l-9,11.39,10,14.25C43.86,42.79,43.7,43.1,43.24,43.1Z"/></g></g></svg>