<svg xmlns="http://www.w3.org/2000/svg" viewBox="0 0 176.48 79.01"><defs><style>.cls-1{fill:#f74900;}.cls-2{fill:#fff;}</style></defs><g id="Layer_2" data-name="Layer 2"><g id="Layer_1-2" data-name="Layer 1"><rect class="cls-1" y="17.83" width="78.85" height="61.18" rx="1.22"/><path class="cls-1" d="M161.49,30.41a1,1,0,0,1,0-.93l14.88-28A1,1,0,0,0,175.49,0H68.55A1.13,1.13,0,0,0,68,2.09L86.43,13.81A1.44,1.44,0,0,1,87.09,15V58.54a1.36,1.36,0,0,0,1.37,1.36h87a1,1,0,0,0,.88-1.45Z"/><path class="cls-2" d="M35.52,60.88H31.16a.57.57,0,0,1-.53-.26l-5.27-7.55L23.25,55.7v4.74a.41.41,0,0,1-.44.44H19.07a.41.41,0,0,1-.44-.44V40.83a.41.41,0,0,1,.44-.44h3.74a.41.41,0,0,1,.44.44v8.55l6.39-8.76a.63.63,0,0,1,.52-.23h4.57c.38,0,.41.26.23.53L28.2,49.46l7.58,10.9C36,60.65,35.87,60.88,35.52,60.88Z"/><path class="cls-2" d="M42.25,50.72A10.56,10.56,0,1,1,52.79,61.26,10.5,10.5,0,0,1,42.25,50.72Zm16.4,0a5.86,5.86,0,1,0-5.86,6A5.81,5.81,0,0,0,58.65,50.72Z"/><path class="cls-2" d="M105.77,40.82V21.2a.41.41,0,0,1,.44-.44h6.35C119.38,20.76,123,25.27,123,31s-3.66,10.24-10.48,10.24h-6.35A.41.41,0,0,1,105.77,40.82Zm6.73-3.66c3.84,0,5.83-2.17,5.83-6.15s-2-6.15-5.83-6.15h-2.11v12.3Z"/><path class="cls-2" d="M148.93,41.25H145a.46.46,0,0,1-.5-.35l-.88-2.75h-7.38l-.87,2.75a.47.47,0,0,1-.5.35H131c-.33,0-.5-.2-.39-.49l6.8-19.65a.57.57,0,0,1,.55-.35h4a.58.58,0,0,1,.56.35l6.79,19.65C149.4,41.05,149.25,41.25,148.93,41.25Zm-6.62-7.2-2.37-7.4-2.37,7.4Z"/></g></g></svg>