<?xml version="1.0" encoding="UTF-8"?>
<svg width="1651px" height="422px" viewBox="0 0 1651 422" version="1.1" xmlns="http://www.w3.org/2000/svg" xmlns:xlink="http://www.w3.org/1999/xlink">
    <title>Artboard</title>
    <g id="Artboard" stroke="none" stroke-width="1" fill="none" fill-rule="evenodd">
        <path d="M356,156 L663.251704,156 C673.053817,156 681,163.946183 681,173.748296 C681,183.550409 673.053817,191.496592 663.251704,191.496592 L527.301694,191.496592 C519.632453,191.496592 513.415306,197.71374 513.415306,205.38298 C513.415306,213.052221 519.632453,219.269369 527.301694,219.269369 L583.283793,219.269369 C592.045965,219.269369 599.149109,226.372512 599.149109,235.134684 C599.149109,243.896856 592.045965,251 583.283793,251 L432,251 L432,251 L356,156 Z" id="Path-25" fill="#F5F7FA"></path>
        <path d="M1257.414,136.269 L1249.02603,138.605253 L1232.333,168 L1209.71621,168 C1201.0596,168 1194.02229,161.066985 1193.85398,152.450657 L1193.85089,152.134684 C1193.85089,143.372512 1200.95404,136.269369 1209.71621,136.269369 L1209.71621,136.269369 L1257.414,136.269 Z M1423.5,73 C1449.73353,73 1471,94.2664744 1471,120.5 C1471,138.663996 1460.80458,154.446726 1445.82424,162.437699 L1315.82912,120 L1276.65888,130.910306 C1278.49246,128.556885 1279.58469,125.597485 1279.58469,122.38298 C1279.58469,114.71374 1273.36755,108.496592 1265.69831,108.496592 L1265.69831,108.496592 L1129.7483,108.496592 C1119.94618,108.496592 1112,100.550409 1112,90.7482961 C1112,80.9461828 1119.94618,73 1129.7483,73 L1129.7483,73 Z" id="Combined-Shape" fill="#F5F7FA"></path>
        <circle id="Oval-Copy" fill="#F13D14" cx="1141" cy="151" r="31"></circle>
        <polyline id="Path-63-Copy" stroke="#32404B" stroke-width="4" stroke-linecap="round" stroke-linejoin="round" points="1188 242 1132.26038 249.351887 1089.78304 322.606418 1035 347"></polyline>
        <path d="M1110,283.978565 L1037.88325,229.786937 C1036.33978,228.627109 1034.46134,228 1032.53067,228 L950.627199,228 C946.875331,228 943.525451,230.350291 942.248843,233.878291 L919.770097,296 L919.770097,296 L882.082536,295.966705 L871.815308,272.846185 C871.371495,271.846773 870.20153,271.396372 869.202118,271.840185 C868.756341,272.038143 868.399317,272.393675 868.199496,272.83862 L857.797868,296 L857.797868,296 L849.450713,281.758307 C848.897767,280.814886 847.684721,280.498342 846.741299,281.051289 C846.437343,281.229439 846.186426,281.485467 846.01444,281.792953 L838.086646,295.966705 L838.086646,295.966705 L810,296" id="Path-70-Copy" stroke="#32404B" stroke-width="4" stroke-linecap="round" stroke-linejoin="round"></path>
        <path d="M1035,228 L1024.4341,252.153811 C1023.27513,254.803224 1023.12233,257.784399 1024.00433,260.538425 L1027.08343,270.152787 C1028.18013,273.577173 1027.66686,277.31401 1025.6875,280.315889 L1012,301.074163 L1012,301.074163 L1012,313" id="Path-71-Copy" stroke="#32404B" stroke-width="3.96" stroke-linecap="round" stroke-linejoin="round"></path>
        <polyline id="Path-66-Copy" stroke="#32404B" stroke-width="4" stroke-linecap="round" stroke-linejoin="round" points="44 318 133.565337 255.359197 193.07024 172.009315 334.475992 130 434 255.359197 434 272.665409"></polyline>
        <polyline id="Path-67-Copy" stroke="#32404B" stroke-width="4" stroke-linecap="round" stroke-linejoin="round" points="328 278 356 247.008243 334.791397 131"></polyline>
        <polyline id="Path-72-Copy" stroke="#32404B" stroke-width="4" stroke-linecap="round" stroke-linejoin="round" points="434 272.916799 492.687262 286.047608 503.537008 260 509.951874 292.57674 517.922967 279.785083 526 300"></polyline>
        <line x1="526" y1="300.5" x2="576" y2="300.5" id="Path-73-Copy" stroke="#32404B" stroke-width="4" stroke-linecap="round"></line>
        <g id="Group-Copy-2" transform="translate(238.000000, 255.000000)" fill="#32404B">
            <path d="M20.6817112,10.9995175 L36.3606376,41.5628118 C36.8597679,42.5357781 36.475648,43.7291481 35.5026818,44.2282784 C35.2230257,44.3717415 34.9132339,44.4465672 34.5989264,44.4465672 L3.24107356,44.4465672 C2.14754976,44.4465672 1.26107356,43.560091 1.26107356,42.4665672 C1.26107356,42.1522597 1.33589923,41.8424679 1.47936238,41.5628118 L17.1582888,10.9995175 C17.6574191,10.0265513 18.8507891,9.64243139 19.8237553,10.1415617 C20.192478,10.3307159 20.492557,10.6307949 20.6817112,10.9995175 Z" id="Triangle-Copy-5"></path>
            <path d="M44.3317112,3.4341444 L60.0106376,33.9974387 C60.5097679,34.9704049 60.125648,36.1637749 59.1526818,36.6629052 C58.8730257,36.8063684 58.5632339,36.881194 58.2489264,36.881194 L26.8910736,36.881194 C25.7975498,36.881194 24.9110736,35.9947178 24.9110736,34.901194 C24.9110736,34.5868866 24.9858992,34.2770947 25.1293624,33.9974387 L40.8082888,3.4341444 C41.3074191,2.46117818 42.5007891,2.07705826 43.4737553,2.57618855 C43.842478,2.76534273 44.142557,3.06542176 44.3317112,3.4341444 Z" id="Triangle-Copy-6"></path>
            <path d="M63.2517112,18.5648907 L78.9306376,49.128185 C79.4297679,50.1011512 79.045648,51.2945212 78.0726818,51.7936515 C77.7930257,51.9371146 77.4832339,52.0119403 77.1689264,52.0119403 L45.8110736,52.0119403 C44.7175498,52.0119403 43.8310736,51.1254641 43.8310736,50.0319403 C43.8310736,49.7176328 43.9058992,49.407841 44.0493624,49.128185 L59.7282888,18.5648907 C60.2274191,17.5919244 61.4207891,17.2078045 62.3937553,17.7069348 C62.762478,17.896089 63.062557,18.196168 63.2517112,18.5648907 Z" id="Triangle-Copy-7"></path>
            <path d="M85.9557112,10.9995175 L101.634638,41.5628118 C102.133768,42.5357781 101.749648,43.7291481 100.776682,44.2282784 C100.497026,44.3717415 100.187234,44.4465672 99.8729264,44.4465672 L68.5150736,44.4465672 C67.4215498,44.4465672 66.5350736,43.560091 66.5350736,42.4665672 C66.5350736,42.1522597 66.6098992,41.8424679 66.7533624,41.5628118 L82.4322888,10.9995175 C82.9314191,10.0265513 84.1247891,9.64243139 85.0977553,10.1415617 C85.466478,10.3307159 85.766557,10.6307949 85.9557112,10.9995175 Z" id="Triangle-Copy-8"></path>
            <path d="M111.497711,29.9129504 L127.176638,60.4762447 C127.675768,61.4492109 127.291648,62.6425809 126.318682,63.1417112 C126.039026,63.2851743 125.729234,63.36 125.414926,63.36 L94.0570736,63.36 C92.9635498,63.36 92.0770736,62.4735238 92.0770736,61.38 C92.0770736,61.0656925 92.1518992,60.7559007 92.2953624,60.4762447 L107.974289,29.9129504 C108.473419,28.9399842 109.666789,28.5558642 110.639755,29.0549945 C111.008478,29.2441487 111.308557,29.5442277 111.497711,29.9129504 Z" id="Triangle-Copy-9"></path>
        </g>
        <g id="Group-Copy-3" transform="translate(928.000000, 293.066114)" fill="#32404B">
            <path d="M20.6817112,10.9995175 L36.3606376,41.5628118 C36.8597679,42.5357781 36.475648,43.7291481 35.5026818,44.2282784 C35.2230257,44.3717415 34.9132339,44.4465672 34.5989264,44.4465672 L3.24107356,44.4465672 C2.14754976,44.4465672 1.26107356,43.560091 1.26107356,42.4665672 C1.26107356,42.1522597 1.33589923,41.8424679 1.47936238,41.5628118 L17.1582888,10.9995175 C17.6574191,10.0265513 18.8507891,9.64243139 19.8237553,10.1415617 C20.192478,10.3307159 20.492557,10.6307949 20.6817112,10.9995175 Z" id="Triangle-Copy-5"></path>
            <path d="M44.3317112,3.4341444 L60.0106376,33.9974387 C60.5097679,34.9704049 60.125648,36.1637749 59.1526818,36.6629052 C58.8730257,36.8063684 58.5632339,36.881194 58.2489264,36.881194 L26.8910736,36.881194 C25.7975498,36.881194 24.9110736,35.9947178 24.9110736,34.901194 C24.9110736,34.5868866 24.9858992,34.2770947 25.1293624,33.9974387 L40.8082888,3.4341444 C41.3074191,2.46117818 42.5007891,2.07705826 43.4737553,2.57618855 C43.842478,2.76534273 44.142557,3.06542176 44.3317112,3.4341444 Z" id="Triangle-Copy-6"></path>
            <path d="M63.2517112,18.5648907 L78.9306376,49.128185 C79.4297679,50.1011512 79.045648,51.2945212 78.0726818,51.7936515 C77.7930257,51.9371146 77.4832339,52.0119403 77.1689264,52.0119403 L45.8110736,52.0119403 C44.7175498,52.0119403 43.8310736,51.1254641 43.8310736,50.0319403 C43.8310736,49.7176328 43.9058992,49.407841 44.0493624,49.128185 L59.7282888,18.5648907 C60.2274191,17.5919244 61.4207891,17.2078045 62.3937553,17.7069348 C62.762478,17.896089 63.062557,18.196168 63.2517112,18.5648907 Z" id="Triangle-Copy-7"></path>
            <path d="M85.9557112,10.9995175 L101.634638,41.5628118 C102.133768,42.5357781 101.749648,43.7291481 100.776682,44.2282784 C100.497026,44.3717415 100.187234,44.4465672 99.8729264,44.4465672 L68.5150736,44.4465672 C67.4215498,44.4465672 66.5350736,43.560091 66.5350736,42.4665672 C66.5350736,42.1522597 66.6098992,41.8424679 66.7533624,41.5628118 L82.4322888,10.9995175 C82.9314191,10.0265513 84.1247891,9.64243139 85.0977553,10.1415617 C85.466478,10.3307159 85.766557,10.6307949 85.9557112,10.9995175 Z" id="Triangle-Copy-8"></path>
            <path d="M111.497711,29.9129504 L127.176638,60.4762447 C127.675768,61.4492109 127.291648,62.6425809 126.318682,63.1417112 C126.039026,63.2851743 125.729234,63.36 125.414926,63.36 L94.0570736,63.36 C92.9635498,63.36 92.0770736,62.4735238 92.0770736,61.38 C92.0770736,61.0656925 92.1518992,60.7559007 92.2953624,60.4762447 L107.974289,29.9129504 C108.473419,28.9399842 109.666789,28.5558642 110.639755,29.0549945 C111.008478,29.2441487 111.308557,29.5442277 111.497711,29.9129504 Z" id="Triangle-Copy-9"></path>
        </g>
        <line x1="302" y1="224.5" x2="350" y2="224.5" id="Path-78-Copy-13" stroke="#32404B" stroke-width="4" stroke-linecap="round"></line>
        <line x1="322" y1="181.5" x2="343" y2="181.5" id="Path-78-Copy-14" stroke="#32404B" stroke-width="4" stroke-linecap="round"></line>
        <line x1="1137" y1="285.5" x2="1112" y2="285.5" id="Path-80-Copy-3" stroke="#32404B" stroke-width="4" stroke-linecap="round"></line>
        <line x1="1021" y1="289.5" x2="1032" y2="289.5" id="Path-81-Copy-4" stroke="#32404B" stroke-width="4" stroke-linecap="round"></line>
        <line x1="1025" y1="256.5" x2="1043" y2="256.5" id="Path-81-Copy-5" stroke="#32404B" stroke-width="4" stroke-linecap="round"></line>
        <circle id="Oval-Copy-20" fill="#32404B" cx="442" cy="200" r="4"></circle>
        <circle id="Oval-Copy-27" fill="#32404B" cx="233" cy="221" r="4"></circle>
        <circle id="Oval-Copy-29" fill="#32404B" cx="1099" cy="230" r="4"></circle>
        <circle id="Oval-Copy-30" fill="#32404B" cx="146" cy="174" r="4"></circle>
        <circle id="Oval-Copy-31" fill="#32404B" cx="540" cy="134" r="4"></circle>
        <circle id="Oval-Copy-33" fill="#32404B" cx="403" cy="147" r="4"></circle>
        <circle id="Oval-Copy-34" fill="#32404B" cx="438" cy="329" r="4"></circle>
        <line x1="1014" y1="300.5" x2="1045" y2="300.5" id="Path-81-Copy-3" stroke="#32404B" stroke-width="4" stroke-linecap="round"></line>
        <line x1="420.447168" y1="239.066114" x2="383.815723" y2="239.066114" id="Path-79-Copy-3" stroke="#32404B" stroke-width="4" stroke-linecap="round"></line>
        <line x1="432" y1="255.066114" x2="400" y2="255.066114" id="Path-79-Copy-2" stroke="#32404B" stroke-width="4" stroke-linecap="round"></line>
        <line x1="259" y1="247.066114" x2="356" y2="247.066114" id="Path-78-Copy-12" stroke="#32404B" stroke-width="4" stroke-linecap="round"></line>
        <line x1="308" y1="166.066114" x2="339" y2="166.066114" id="Path-78-Copy-15" stroke="#32404B" stroke-width="4" stroke-linecap="round"></line>
        <path d="M1315.63886,120.5 L1279.38465,204.333363 C1278.48855,206.405475 1278.32757,208.721621 1278.92841,210.897772 L1286.87356,239.674081 C1287.41651,241.64057 1287.33869,243.726778 1286.65074,245.647351 L1281.49576,260.038761 C1279.65198,265.186123 1282.33006,270.853563 1287.47742,272.697342 C1287.62041,272.748561 1287.76456,272.796483 1287.90976,272.841069 L1355.96997,293.740716 C1358.7196,294.585064 1360.96608,296.58353 1362.12488,299.216135 L1388,358 L1388,358" id="Path-68-Copy" stroke="#32404B" stroke-width="4" stroke-linecap="round" stroke-linejoin="round"></path>
        <path d="M1388,358 L1336.5283,358 L1323.50364,329.297623 C1323.05177,328.30183 1321.8782,327.860896 1320.88241,328.312771 C1320.40988,328.527194 1320.04042,328.918544 1319.85351,329.402612 L1308.81144,358 L1308.81144,358 L1300.49081,344.337461 C1299.92202,343.403505 1298.7038,343.107478 1297.76985,343.676267 C1297.48889,343.847376 1297.25498,344.085793 1297.08928,344.369974 L1289.14158,358 L1289.14158,358 L1229,358" id="Path-69-Copy" stroke="#32404B" stroke-width="4" stroke-linecap="round" stroke-linejoin="round"></path>
        <path d="M1602,213.521775 L1316.66701,120.186449 C1316.29536,120.064877 1315.89603,120.056074 1315.51937,120.161151 L1250.23547,138.373859 C1249.73373,138.513831 1249.30737,138.845879 1249.04877,139.298044 L1160,295 L1160,295" id="Path-61-Copy" stroke="#32404B" stroke-width="4" stroke-linecap="round" stroke-linejoin="round"></path>
        <line x1="1301" y1="155.5" x2="1350" y2="155.5" id="Path-78-Copy-8" stroke="#32404B" stroke-width="4" stroke-linecap="round"></line>
        <line x1="1293" y1="178.5" x2="1342" y2="178.5" id="Path-78-Copy-9" stroke="#32404B" stroke-width="4" stroke-linecap="round"></line>
        <line x1="1284" y1="253.5" x2="1317" y2="253.5" id="Path-78-Copy-10" stroke="#32404B" stroke-width="4" stroke-linecap="round"></line>
        <line x1="1288" y1="242.5" x2="1385" y2="242.5" id="Path-78-Copy-11" stroke="#32404B" stroke-width="4" stroke-linecap="round"></line>
        <line x1="1155.33963" y1="269.5" x2="1122" y2="269.5" id="Path-80-Copy-2" stroke="#32404B" stroke-width="4" stroke-linecap="round"></line>
        <circle id="Oval-Copy-25" fill="#32404B" cx="1330" cy="95" r="4"></circle>
        <circle id="Oval-Copy-26" fill="#32404B" cx="1213" cy="296" r="4"></circle>
        <circle id="Oval-Copy-32" fill="#32404B" cx="1196" cy="69" r="4"></circle>
        <circle id="Oval-Copy-28" fill="#32404B" cx="1409" cy="298" r="4"></circle>
    </g>
</svg>