<svg xmlns="http://www.w3.org/2000/svg" viewBox="0 0 761.17 618.6"><g data-name="Layer 2"><path d="M0 548.42a441.87 441.87 0 00239.37 70.18c290 0 453.74-244.9 443.89-464.55a316.57 316.57 0 0077.91-80.84 312 312 0 01-89.69 24.59 156.28 156.28 0 0068.64-86.39A312.94 312.94 0 01641 49.33 155.93 155.93 0 00527 0C426.18 0 352.1 94.07 374.88 191.76 245.07 185.25 130 123.07 53 28.58c-40.91 70.2-21.23 162 48.34 208.51a155.53 155.53 0 01-70.78-19.55c-1.67 72.36 50.15 140 125.27 155.1a156.23 156.23 0 01-70.5 2.67 156.18 156.18 0 00145.86 108.45A313.72 313.72 0 010 548.42z" fill="#131313" data-name="Capa 1"/></g></svg>